<?xml version="1.0" standalone="no"?>
<!DOCTYPE svg PUBLIC "-//W3C//DTD SVG 20010904//EN"
 "http://www.w3.org/TR/2001/REC-SVG-20010904/DTD/svg10.dtd">
<svg version="1.0" xmlns="http://www.w3.org/2000/svg"
 width="714.000000pt" height="349.000000pt" viewBox="0 0 714.000000 349.000000"
 preserveAspectRatio="xMidYMid meet">

<g transform="translate(0.000000,349.000000) scale(0.100000,-0.100000)"
fill="#000000" stroke="none">
<path d="M5639 3071 l-44 -39 0 -70 c0 -55 4 -74 19 -91 60 -66 196 36 196
148 0 68 -20 91 -79 91 -42 0 -54 -5 -92 -39z"/>
<path d="M5429 3010 c-44 -23 -96 -81 -105 -117 -9 -34 13 -74 49 -91 82 -40
194 70 172 169 -13 60 -52 73 -116 39z"/>
<path d="M5876 2945 c-49 -17 -112 -79 -127 -123 -22 -67 41 -111 130 -91 74
17 121 74 121 147 0 65 -52 93 -124 67z"/>
<path d="M4833 2848 c-28 -35 -20 -104 17 -151 47 -59 110 -26 110 58 0 38 -5
52 -29 76 -31 31 -80 39 -98 17z"/>
<path d="M4692 2754 c-17 -12 -22 -25 -22 -57 1 -64 44 -107 109 -107 58 0 77
48 41 107 -34 56 -92 82 -128 57z"/>
<path d="M5295 2758 c-54 -29 -60 -90 -16 -159 40 -61 217 -233 267 -259 50
-25 85 -20 114 18 33 41 33 65 5 133 -20 47 -25 72 -21 101 12 77 -44 138
-128 138 -29 0 -77 9 -109 20 -64 23 -83 24 -112 8z"/>
<path d="M5016 2744 c-39 -39 -27 -101 26 -134 19 -12 46 -19 63 -18 25 3 31
8 33 32 5 38 -15 81 -50 111 -34 29 -51 31 -72 9z"/>
<path d="M5790 2657 c-54 -27 -89 -143 -60 -198 26 -47 122 -8 171 70 36 55
38 103 7 125 -27 19 -84 20 -118 3z"/>
<path d="M4694 2562 c-47 -32 7 -172 67 -172 50 0 77 80 43 128 -26 38 -85 62
-110 44z"/>
<path d="M4931 2552 c-25 -12 -38 -30 -51 -64 -10 -26 -27 -59 -39 -74 -26
-34 -27 -68 -1 -94 32 -32 72 -24 188 35 114 59 152 91 152 131 0 43 -33 65
-98 63 -31 -1 -70 3 -85 10 -34 13 -26 14 -66 -7z"/>
<path d="M1171 2341 c-11 -11 -23 -37 -27 -58 -5 -21 -8 -229 -8 -463 -1 -476
2 -498 68 -576 76 -89 226 -113 478 -79 121 17 136 21 162 47 25 25 28 34 23
69 -3 22 -12 51 -21 64 -20 31 -61 32 -204 9 -119 -19 -202 -15 -240 12 -16
12 -35 43 -47 75 -18 50 -19 78 -18 377 1 177 5 327 8 332 4 6 88 10 216 10
210 0 210 0 234 25 35 34 35 102 1 142 l-24 28 -291 3 c-278 3 -291 2 -310
-17z"/>
<path d="M457 2197 c-31 -25 -37 -75 -44 -358 -7 -293 -1 -358 39 -445 25 -55
73 -102 128 -128 91 -43 419 -18 463 35 10 13 17 38 17 66 0 36 -6 50 -30 75
-24 24 -37 29 -58 25 -78 -16 -222 -29 -253 -23 -52 9 -86 47 -100 111 -13 56
-8 422 5 444 5 7 61 11 177 11 96 0 179 4 189 10 40 21 38 138 -3 164 -34 22
-505 33 -530 13z"/>
<path d="M4950 2149 c-244 -10 -286 -16 -310 -42 -29 -30 -28 -115 2 -152 21
-27 21 -27 117 -21 228 14 652 18 714 7 107 -21 113 -26 128 -105 25 -136
-137 -493 -350 -774 -80 -106 -87 -133 -43 -174 66 -62 106 -63 168 -6 92 85
281 403 359 606 51 132 87 291 88 387 2 145 -51 213 -191 246 -69 17 -368 41
-462 37 -19 0 -118 -5 -220 -9z"/>
<path d="M2320 2137 c-60 -21 -62 -36 -68 -371 -5 -318 8 -593 32 -684 30
-113 96 -186 194 -218 86 -28 287 -20 831 31 233 22 251 49 251 372 0 184 -17
686 -26 748 -8 64 -25 78 -97 83 -53 3 -66 1 -90 -18 l-28 -22 7 -164 7 -164
-274 0 c-151 0 -344 -3 -430 -7 l-157 -6 6 200 c5 196 4 201 -16 212 -33 18
-104 22 -142 8z m1024 -638 c3 -17 6 -114 6 -214 l0 -183 -67 -6 c-256 -22
-335 -28 -471 -35 -85 -4 -170 -5 -191 -1 -105 19 -135 89 -143 339 -2 71 1
106 8 108 22 7 383 20 615 21 l237 2 6 -31z"/>
<path d="M3880 2010 c-38 -9 -60 -33 -60 -66 0 -12 9 -74 20 -138 35 -206 52
-406 55 -635 2 -258 0 -251 95 -251 47 0 62 4 84 25 l26 24 0 185 c0 102 3
187 8 190 4 2 64 10 132 16 69 7 140 19 158 26 49 20 63 70 41 147 -17 62 -45
68 -208 50 -102 -12 -135 -12 -141 -3 -4 6 -12 50 -19 98 -37 269 -43 301 -61
317 -22 20 -82 27 -130 15z"/>
<path d="M6405 2005 c-22 -8 -41 -15 -41 -15 -11 -1 -11 -48 1 -128 27 -191
38 -392 32 -592 -4 -107 -10 -218 -13 -246 -6 -44 -3 -54 18 -78 21 -25 30
-28 81 -27 121 1 122 6 122 451 0 329 -12 525 -35 585 -19 51 -98 75 -165 50z"/>
<path d="M1100 1170 c-59 -14 -61 -24 -54 -217 l7 -173 -285 0 c-343 0 -333 3
-333 -104 0 -108 -5 -106 281 -113 264 -6 732 9 979 32 88 8 163 15 168 15 4
0 16 9 27 20 38 38 16 160 -32 176 -10 3 -74 1 -141 -5 -265 -24 -355 -31
-398 -31 l-46 0 -6 128 c-4 70 -7 152 -7 183 0 41 -5 60 -18 72 -22 20 -94 29
-142 17z"/>
</g>
</svg>
