<?xml version="1.0" standalone="no"?>
<!DOCTYPE svg PUBLIC "-//W3C//DTD SVG 20010904//EN"
 "http://www.w3.org/TR/2001/REC-SVG-20010904/DTD/svg10.dtd">
<svg version="1.0" xmlns="http://www.w3.org/2000/svg"
 width="666.000000pt" height="375.000000pt" viewBox="0 0 666.000000 375.000000"
 preserveAspectRatio="xMidYMid meet">

<g transform="translate(0.000000,375.000000) scale(0.100000,-0.100000)"
fill="#000000" stroke="none">
<path d="M5631 3222 c-80 -6 -140 -62 -141 -130 0 -49 40 -117 75 -126 24 -6
63 3 90 20 23 16 61 18 70 4 13 -20 -46 -90 -131 -155 -71 -55 -85 -71 -78
-90 6 -14 14 -16 43 -11 20 4 61 11 92 15 65 10 90 23 142 71 41 38 97 145 97
185 0 70 -21 122 -68 167 -41 41 -53 47 -97 50 -27 1 -70 2 -94 0z"/>
<path d="M4605 3168 c-48 -37 -31 -118 41 -193 l29 -30 -3 -452 c-3 -475 1
-533 38 -533 30 0 50 11 50 27 0 9 13 39 29 67 15 28 34 73 40 101 34 138 48
550 26 748 l-12 117 -59 63 c-70 74 -85 86 -124 97 -23 7 -35 4 -55 -12z"/>
<path d="M3207 3036 c-52 -42 -37 -125 43 -226 24 -31 36 -166 25 -293 l-7
-86 -66 0 c-37 0 -89 -5 -117 -10 -27 -5 -54 -6 -58 -2 -4 5 -11 66 -14 136
l-6 128 -34 31 c-19 17 -54 50 -79 74 -43 42 -97 72 -128 72 -21 0 -39 -37
-32 -64 3 -12 18 -40 32 -62 74 -108 69 -70 66 -464 -1 -195 2 -371 6 -390 20
-90 129 -6 145 111 2 20 8 42 12 49 4 7 9 45 10 84 4 113 11 136 45 136 16 0
71 11 122 25 51 14 94 25 96 25 1 0 2 -117 2 -259 0 -145 4 -271 10 -285 14
-37 57 -36 71 2 5 15 25 56 43 92 31 59 35 81 52 235 25 232 27 465 7 644
l-17 145 -49 55 c-76 86 -80 89 -117 105 -33 13 -37 13 -63 -8z"/>
<path d="M1428 2963 c-14 -16 -32 -45 -39 -65 -11 -33 -11 -39 6 -57 11 -14
25 -19 39 -15 26 6 48 -16 72 -71 14 -33 17 -71 16 -209 -1 -93 -3 -170 -4
-170 -13 -7 -310 14 -332 23 -24 10 -32 9 -45 -4 -23 -23 -4 -47 60 -70 30
-11 61 -24 69 -30 8 -5 69 -11 135 -12 l120 -1 3 -26 c3 -21 -3 -28 -35 -41
-21 -9 -65 -23 -98 -31 -33 -9 -82 -22 -110 -29 -27 -8 -72 -16 -98 -20 -59
-8 -90 -35 -78 -67 9 -27 75 -74 111 -81 26 -5 153 41 245 88 l50 26 6 -43 c4
-24 3 -47 -1 -53 -4 -5 -7 -155 -6 -332 l1 -321 -29 -6 c-16 -3 -52 -6 -80 -6
-28 0 -91 -7 -141 -15 -92 -15 -231 -20 -259 -9 -18 7 -21 35 -5 51 13 13 8
82 -9 128 -6 17 -16 49 -22 73 -15 59 -41 54 -57 -11 -6 -27 -26 -70 -43 -96
-107 -168 -124 -276 -53 -343 51 -48 184 -55 344 -19 25 6 108 21 185 35 223
40 354 65 424 82 36 8 74 17 85 18 11 2 40 11 65 20 25 9 56 19 70 22 36 8 73
27 78 42 3 9 -17 12 -75 12 -58 1 -73 3 -60 11 9 5 17 17 17 24 0 17 -44 19
-105 5 -22 -5 -83 -6 -137 -3 l-98 6 6 41 c4 23 11 47 17 54 5 6 7 12 4 12 -3
0 1 17 10 38 9 20 18 51 19 67 4 45 13 120 14 120 1 0 3 27 5 60 2 33 7 74 10
90 4 17 8 91 9 165 2 74 6 142 9 150 7 19 7 18 8 240 1 226 -5 317 -28 396
-24 83 -63 125 -144 158 -82 32 -89 32 -121 -1z"/>
<path d="M3953 2919 c-7 -7 -13 -20 -13 -29 0 -29 -36 -154 -60 -205 -47 -102
-59 -131 -69 -155 -6 -14 -15 -32 -20 -40 -25 -41 -161 -363 -161 -381 0 -32
26 -74 55 -87 48 -22 116 32 168 133 39 78 75 125 96 125 23 0 149 -132 181
-189 28 -51 85 -111 104 -111 7 0 21 9 30 19 22 24 16 61 -24 146 -26 55 -128
167 -196 215 -46 33 -45 46 12 160 30 59 54 114 54 121 0 8 7 23 15 33 8 11
15 31 15 44 0 28 -70 160 -98 185 -25 23 -74 31 -89 16z"/>
<path d="M5381 2807 c-20 -10 -22 -16 -17 -53 5 -36 1 -48 -26 -85 -40 -55
-68 -120 -83 -190 -10 -48 -9 -62 5 -100 10 -24 28 -52 41 -62 23 -17 28 -17
122 3 105 22 167 43 207 71 33 23 100 36 100 19 0 -7 -44 -55 -98 -109 l-97
-96 -120 -39 c-182 -58 -247 -83 -266 -103 -10 -10 -21 -41 -25 -70 -6 -49 -5
-52 30 -86 49 -48 69 -53 117 -28 22 12 48 21 59 21 11 0 43 11 72 24 48 21
109 42 357 121 47 15 121 33 165 41 89 15 161 31 276 62 41 11 117 25 168 31
141 15 175 50 111 113 l-30 31 -220 -5 c-150 -3 -223 -8 -231 -16 -14 -14 -87
-16 -108 -2 -13 8 -9 22 27 92 23 46 51 104 62 129 21 46 61 89 84 89 19 0 77
59 77 79 0 27 -51 81 -76 81 -23 0 -160 -42 -209 -64 -16 -8 -52 -22 -80 -31
-27 -9 -63 -23 -80 -31 -70 -32 -193 -71 -205 -64 -9 6 -9 27 -1 99 10 80 9
94 -5 116 -18 28 -60 33 -103 12z"/>
<path d="M2341 2744 c-12 -15 -21 -39 -21 -55 0 -32 -22 -104 -50 -164 -72
-155 -90 -195 -90 -202 0 -4 -11 -30 -24 -58 -13 -27 -32 -68 -41 -90 -26 -60
-75 -168 -86 -187 -23 -45 4 -123 46 -134 57 -14 129 48 178 155 29 61 63 101
88 101 30 0 144 -120 180 -188 39 -75 90 -118 120 -99 10 6 21 17 23 24 8 19
-23 111 -50 154 -13 21 -24 43 -24 48 0 9 -113 110 -143 128 -7 4 -23 22 -36
38 l-22 31 27 49 c87 165 119 245 110 278 -3 13 -16 40 -30 59 -13 20 -27 45
-31 57 -7 23 -73 81 -92 81 -6 0 -21 -12 -32 -26z"/>
<path d="M870 2659 c-24 -5 -59 -16 -76 -24 -54 -26 -229 -47 -332 -42 l-94 5
-14 -33 c-12 -28 -11 -39 1 -77 28 -82 87 -125 147 -107 18 5 58 9 90 9 31 0
91 7 132 15 82 15 106 12 106 -14 0 -22 -108 -186 -173 -263 -47 -55 -117
-150 -154 -208 -19 -30 -66 -85 -104 -121 -76 -72 -89 -103 -39 -89 16 5 40
16 52 24 12 9 37 16 55 16 25 0 45 10 76 39 23 21 53 42 67 46 30 9 118 90
179 165 25 30 48 57 53 58 4 2 8 8 8 12 0 5 12 22 26 37 52 56 178 257 206
330 38 98 35 122 -19 148 -23 11 -52 30 -65 41 -25 24 -62 45 -75 43 -4 -1
-28 -5 -53 -10z"/>
<path d="M4420 1960 c-24 -6 -58 -16 -76 -25 -18 -8 -38 -15 -46 -16 -20 -1
-70 -32 -82 -52 -9 -13 -5 -29 17 -71 40 -76 67 -98 127 -104 27 -2 50 0 50 5
0 10 43 37 83 52 19 8 28 6 40 -7 14 -15 13 -22 -11 -72 -35 -73 -129 -210
-161 -235 -14 -11 -41 -27 -61 -36 -96 -44 -97 -116 -4 -178 59 -39 78 -39
137 -1 26 17 50 30 53 30 3 0 35 18 72 40 100 60 136 134 96 195 -16 24 -15
27 25 80 36 47 79 135 66 135 -2 0 0 14 5 31 7 24 4 38 -13 68 -33 57 -60 87
-98 110 -91 55 -142 66 -219 51z"/>
<path d="M5933 1927 c-17 -7 -35 -15 -39 -19 -4 -5 -17 -8 -29 -8 -12 0 -43
-11 -68 -24 -25 -14 -63 -28 -84 -32 -31 -6 -162 -65 -261 -119 -82 -44 -57
-116 63 -179 53 -28 125 -35 125 -13 1 23 167 147 197 147 10 0 32 8 48 18 52
32 73 33 95 5 24 -31 26 -79 6 -166 -8 -34 -20 -109 -26 -167 -6 -58 -22 -190
-35 -295 -14 -104 -22 -200 -19 -212 4 -16 14 -23 30 -23 13 0 24 4 24 9 0 5
18 32 40 60 22 28 40 57 40 66 0 8 4 15 9 15 5 0 11 18 15 41 4 23 15 60 26
82 11 22 20 55 20 72 0 17 12 65 27 106 27 75 43 184 47 319 2 41 6 87 10 101
9 31 -14 91 -47 125 -12 13 -29 31 -37 39 -29 31 -91 65 -118 64 -15 0 -41 -6
-59 -12z"/>
<path d="M2869 1757 c-52 -35 -91 -98 -97 -155 -3 -39 1 -62 23 -110 30 -67
58 -92 105 -92 51 0 84 25 117 87 56 104 56 196 1 258 -25 30 -37 35 -73 35
-27 0 -54 -8 -76 -23z"/>
<path d="M3195 1646 c-71 -31 -147 -152 -148 -236 -1 -71 28 -100 99 -100 80
0 151 41 186 109 31 60 36 122 14 175 -26 61 -84 81 -151 52z"/>
<path d="M2605 1551 c-59 -35 -117 -122 -130 -192 -9 -50 15 -103 56 -124 65
-34 158 5 200 85 27 49 26 144 -2 190 -38 64 -70 75 -124 41z"/>
<path d="M4031 1451 c-24 -16 10 -136 72 -256 6 -11 28 -54 48 -96 45 -89 100
-146 175 -183 85 -42 151 -53 226 -37 35 7 68 16 73 21 6 4 39 17 76 28 69 21
125 50 174 88 17 13 39 30 50 38 74 54 148 117 198 168 55 57 68 78 48 78 -22
0 -177 -53 -237 -81 -71 -33 -278 -106 -335 -118 -19 -4 -50 -15 -69 -24 -23
-12 -59 -17 -120 -17 -75 0 -91 3 -115 22 -26 20 -115 189 -115 218 0 25 -109
159 -130 160 -3 0 -11 -4 -19 -9z"/>
<path d="M2003 1400 c-36 -15 -28 -33 10 -25 38 9 41 11 32 24 -7 13 -12 13
-42 1z"/>
<path d="M3250 1263 c-80 -29 -113 -65 -125 -140 -8 -53 10 -144 36 -177 23
-29 68 -34 108 -12 48 27 111 153 111 223 0 78 -64 130 -130 106z"/>
<path d="M2765 1193 c-59 -17 -92 -22 -126 -18 -101 14 -179 -39 -179 -119 0
-78 50 -129 216 -219 215 -117 345 -158 403 -128 35 19 61 71 61 123 0 42 -6
53 -59 117 -46 55 -62 83 -71 124 -12 58 -22 73 -65 104 -57 39 -92 43 -180
16z"/>
</g>
</svg>
